<svg width="1600" height="1200" viewBox="0 0 1600 1200" fill="none" xmlns="http://www.w3.org/2000/svg">
    <metadata>
    <gcp x_svg="1200" y_svg="200" x_real="47.18060767456768" y_real="9.52293611859856"  x_tls="0" y_tls="8"/> <!--A2-->
    <gcp x_svg="400" y_svg="200" x_real="47.18063866674092" y_real="9.522875098344734"  x_tls="-8" y_tls="8"/> <!--A3-->
    <gcp x_svg="1200" y_svg="1000" x_real="47.1805502478459" y_real="9.522881803867131" x_tls="0" y_tls="0" /> <!--Origin and A1-->
  </metadata>
<g clip-path="url(#clip0_1_2)">
<rect width="1600" height="1200" fill="white"/>
<rect width="1600" height="1200" fill="#F1F1F1"/>
<rect x="353.5" y="3.5" width="893" height="1193" fill="#D9D9D9" stroke="black" stroke-width="7"/>
<rect x="534.5" y="1189.5" width="99" height="4" fill="#504F4F" stroke="black"/>
<path d="M893.5 1193.5V1150.5H690.5V1193.5H893.5Z" fill="#BBBBBB" stroke="#6C6C6C"/>
<rect x="949.5" y="1189.5" width="99" height="4" fill="#504F4F" stroke="black"/>
<path d="M532 1200H546" stroke="black"/>
<path d="M757.414 1170.45H759.516L764.459 1182.53H764.63L769.573 1170.45H771.675V1185H770.027V1173.95H769.885L765.34 1185H763.749L759.203 1173.95H759.061V1185H757.414V1170.45ZM779.411 1185.23C778.426 1185.23 777.562 1184.99 776.819 1184.52C776.08 1184.06 775.503 1183.4 775.086 1182.56C774.674 1181.71 774.468 1180.73 774.468 1179.6C774.468 1178.47 774.674 1177.47 775.086 1176.63C775.503 1175.78 776.08 1175.12 776.819 1174.65C777.562 1174.18 778.426 1173.95 779.411 1173.95C780.396 1173.95 781.258 1174.18 781.996 1174.65C782.74 1175.12 783.317 1175.78 783.729 1176.63C784.146 1177.47 784.354 1178.47 784.354 1179.6C784.354 1180.73 784.146 1181.71 783.729 1182.56C783.317 1183.4 782.74 1184.06 781.996 1184.52C781.258 1184.99 780.396 1185.23 779.411 1185.23ZM779.411 1183.72C780.159 1183.72 780.775 1183.53 781.258 1183.15C781.741 1182.76 782.098 1182.26 782.33 1181.63C782.562 1181.01 782.678 1180.33 782.678 1179.6C782.678 1178.87 782.562 1178.19 782.33 1177.56C782.098 1176.93 781.741 1176.43 781.258 1176.04C780.775 1175.65 780.159 1175.45 779.411 1175.45C778.663 1175.45 778.048 1175.65 777.565 1176.04C777.082 1176.43 776.724 1176.93 776.492 1177.56C776.26 1178.19 776.144 1178.87 776.144 1179.6C776.144 1180.33 776.26 1181.01 776.492 1181.63C776.724 1182.26 777.082 1182.76 777.565 1183.15C778.048 1183.53 778.663 1183.72 779.411 1183.72ZM788.589 1178.44V1185H786.913V1174.09H788.532V1175.8H788.674C788.93 1175.24 789.318 1174.8 789.839 1174.46C790.36 1174.12 791.032 1173.95 791.856 1173.95C792.595 1173.95 793.241 1174.1 793.795 1174.4C794.349 1174.7 794.78 1175.16 795.088 1175.77C795.395 1176.37 795.549 1177.14 795.549 1178.07V1185H793.873V1178.18C793.873 1177.32 793.651 1176.66 793.206 1176.18C792.761 1175.7 792.15 1175.45 791.373 1175.45C790.838 1175.45 790.36 1175.57 789.939 1175.8C789.522 1176.03 789.193 1176.37 788.951 1176.82C788.71 1177.26 788.589 1177.8 788.589 1178.44ZM798.612 1185V1174.09H800.288V1185H798.612ZM799.464 1172.27C799.138 1172.27 798.856 1172.16 798.619 1171.94C798.387 1171.72 798.271 1171.45 798.271 1171.14C798.271 1170.82 798.387 1170.56 798.619 1170.33C798.856 1170.11 799.138 1170 799.464 1170C799.791 1170 800.071 1170.11 800.303 1170.33C800.539 1170.56 800.658 1170.82 800.658 1171.14C800.658 1171.45 800.539 1171.72 800.303 1171.94C800.071 1172.16 799.791 1172.27 799.464 1172.27ZM808.103 1174.09V1175.51H802.449V1174.09H808.103ZM804.097 1171.48H805.773V1181.88C805.773 1182.35 805.842 1182.7 805.979 1182.94C806.121 1183.17 806.301 1183.33 806.519 1183.41C806.741 1183.48 806.976 1183.52 807.222 1183.52C807.407 1183.52 807.558 1183.51 807.676 1183.49C807.795 1183.47 807.89 1183.45 807.961 1183.44L808.301 1184.94C808.188 1184.99 808.029 1185.03 807.826 1185.07C807.622 1185.12 807.364 1185.14 807.051 1185.14C806.578 1185.14 806.114 1185.04 805.659 1184.84C805.21 1184.63 804.836 1184.32 804.537 1183.91C804.244 1183.49 804.097 1182.96 804.097 1182.33V1171.48ZM814.939 1185.23C813.954 1185.23 813.09 1184.99 812.346 1184.52C811.608 1184.06 811.03 1183.4 810.613 1182.56C810.201 1181.71 809.995 1180.73 809.995 1179.6C809.995 1178.47 810.201 1177.47 810.613 1176.63C811.03 1175.78 811.608 1175.12 812.346 1174.65C813.09 1174.18 813.954 1173.95 814.939 1173.95C815.923 1173.95 816.785 1174.18 817.524 1174.65C818.267 1175.12 818.845 1175.78 819.257 1176.63C819.673 1177.47 819.882 1178.47 819.882 1179.6C819.882 1180.73 819.673 1181.71 819.257 1182.56C818.845 1183.4 818.267 1184.06 817.524 1184.52C816.785 1184.99 815.923 1185.23 814.939 1185.23ZM814.939 1183.72C815.687 1183.72 816.302 1183.53 816.785 1183.15C817.268 1182.76 817.626 1182.26 817.858 1181.63C818.09 1181.01 818.206 1180.33 818.206 1179.6C818.206 1178.87 818.09 1178.19 817.858 1177.56C817.626 1176.93 817.268 1176.43 816.785 1176.04C816.302 1175.65 815.687 1175.45 814.939 1175.45C814.19 1175.45 813.575 1175.65 813.092 1176.04C812.609 1176.43 812.252 1176.93 812.02 1177.56C811.788 1178.19 811.672 1178.87 811.672 1179.6C811.672 1180.33 811.788 1181.01 812.02 1181.63C812.252 1182.26 812.609 1182.76 813.092 1183.15C813.575 1183.53 814.19 1183.72 814.939 1183.72ZM822.44 1185V1174.09H824.06V1175.74H824.173C824.372 1175.2 824.732 1174.76 825.253 1174.42C825.774 1174.09 826.361 1173.92 827.014 1173.92C827.137 1173.92 827.291 1173.92 827.476 1173.93C827.661 1173.93 827.8 1173.94 827.895 1173.95V1175.65C827.838 1175.64 827.708 1175.62 827.504 1175.59C827.305 1175.56 827.095 1175.54 826.872 1175.54C826.342 1175.54 825.868 1175.65 825.452 1175.87C825.04 1176.09 824.713 1176.39 824.472 1176.78C824.235 1177.17 824.116 1177.6 824.116 1178.1V1185H822.44Z" fill="black"/>
<circle cx="1203" cy="1003" r="3" fill="#FF0000"/>
<circle cx="1203" cy="203" r="3" fill="#FF0000"/>
<circle cx="403" cy="1003" r="3" fill="#FF0000"/>
<circle cx="403" cy="200" r="3" fill="#FF0000"/>
<path d="M691.239 558H688.068C687.881 557.088 687.553 556.287 687.084 555.597C686.624 554.906 686.061 554.327 685.396 553.858C684.74 553.381 684.011 553.023 683.21 552.784C682.409 552.545 681.574 552.426 680.705 552.426C679.119 552.426 677.683 552.827 676.396 553.628C675.118 554.429 674.099 555.609 673.341 557.169C672.591 558.729 672.216 560.642 672.216 562.909C672.216 565.176 672.591 567.089 673.341 568.649C674.099 570.209 675.118 571.389 676.396 572.19C677.683 572.991 679.119 573.392 680.705 573.392C681.574 573.392 682.409 573.273 683.21 573.034C684.011 572.795 684.74 572.442 685.396 571.973C686.061 571.496 686.624 570.912 687.084 570.222C687.553 569.523 687.881 568.722 688.068 567.818H691.239C691 569.156 690.565 570.354 689.935 571.411C689.304 572.467 688.52 573.366 687.582 574.108C686.645 574.841 685.592 575.399 684.425 575.783C683.266 576.166 682.026 576.358 680.705 576.358C678.472 576.358 676.486 575.812 674.747 574.722C673.009 573.631 671.641 572.08 670.643 570.068C669.646 568.057 669.148 565.67 669.148 562.909C669.148 560.148 669.646 557.761 670.643 555.75C671.641 553.739 673.009 552.188 674.747 551.097C676.486 550.006 678.472 549.46 680.705 549.46C682.026 549.46 683.266 549.652 684.425 550.036C685.592 550.419 686.645 550.982 687.582 551.723C688.52 552.456 689.304 553.351 689.935 554.408C690.565 555.456 691 556.653 691.239 558ZM695.953 576V556.364H698.868V559.33H699.072C699.43 558.358 700.078 557.57 701.015 556.964C701.953 556.359 703.01 556.057 704.186 556.057C704.407 556.057 704.684 556.061 705.017 556.07C705.349 556.078 705.6 556.091 705.771 556.108V559.176C705.669 559.151 705.434 559.112 705.068 559.061C704.71 559.001 704.331 558.972 703.93 558.972C702.975 558.972 702.123 559.172 701.373 559.572C700.632 559.964 700.044 560.51 699.609 561.209C699.183 561.899 698.97 562.687 698.97 563.574V576H695.953ZM716.983 576.409C715.091 576.409 713.458 575.991 712.086 575.156C710.723 574.312 709.67 573.136 708.929 571.628C708.196 570.111 707.829 568.347 707.829 566.335C707.829 564.324 708.196 562.551 708.929 561.017C709.67 559.474 710.701 558.273 712.022 557.412C713.352 556.543 714.903 556.108 716.676 556.108C717.699 556.108 718.708 556.278 719.706 556.619C720.703 556.96 721.61 557.514 722.429 558.281C723.247 559.04 723.899 560.045 724.385 561.298C724.87 562.551 725.113 564.094 725.113 565.926V567.205H709.977V564.597H722.045C722.045 563.489 721.824 562.5 721.38 561.631C720.946 560.761 720.324 560.075 719.514 559.572C718.713 559.07 717.767 558.818 716.676 558.818C715.474 558.818 714.434 559.116 713.556 559.713C712.687 560.301 712.018 561.068 711.549 562.014C711.081 562.96 710.846 563.974 710.846 565.057V566.795C710.846 568.278 711.102 569.536 711.613 570.567C712.133 571.589 712.853 572.369 713.774 572.906C714.694 573.435 715.764 573.699 716.983 573.699C717.775 573.699 718.491 573.588 719.13 573.366C719.778 573.136 720.336 572.795 720.805 572.344C721.274 571.884 721.636 571.312 721.892 570.631L724.806 571.449C724.5 572.438 723.984 573.307 723.26 574.057C722.535 574.798 721.64 575.378 720.575 575.795C719.51 576.205 718.312 576.409 716.983 576.409ZM735.481 576.46C734.237 576.46 733.108 576.226 732.093 575.757C731.079 575.28 730.274 574.594 729.677 573.699C729.081 572.795 728.782 571.705 728.782 570.426C728.782 569.301 729.004 568.389 729.447 567.69C729.89 566.983 730.483 566.429 731.224 566.028C731.966 565.628 732.784 565.33 733.679 565.134C734.582 564.929 735.49 564.767 736.402 564.648C737.595 564.494 738.562 564.379 739.304 564.303C740.054 564.217 740.599 564.077 740.94 563.881C741.289 563.685 741.464 563.344 741.464 562.858V562.756C741.464 561.494 741.119 560.514 740.429 559.815C739.747 559.116 738.711 558.767 737.322 558.767C735.882 558.767 734.752 559.082 733.934 559.713C733.116 560.344 732.541 561.017 732.208 561.733L729.345 560.71C729.856 559.517 730.538 558.588 731.39 557.923C732.251 557.25 733.189 556.781 734.203 556.517C735.225 556.244 736.231 556.108 737.22 556.108C737.85 556.108 738.575 556.185 739.393 556.338C740.22 556.483 741.017 556.786 741.784 557.246C742.559 557.706 743.203 558.401 743.714 559.33C744.225 560.259 744.481 561.503 744.481 563.062V576H741.464V573.341H741.311C741.106 573.767 740.765 574.223 740.288 574.709C739.811 575.195 739.176 575.608 738.383 575.949C737.591 576.29 736.623 576.46 735.481 576.46ZM735.941 573.75C737.135 573.75 738.14 573.516 738.958 573.047C739.785 572.578 740.407 571.973 740.825 571.232C741.251 570.49 741.464 569.71 741.464 568.892V566.131C741.336 566.284 741.055 566.425 740.62 566.553C740.194 566.672 739.7 566.778 739.137 566.872C738.583 566.957 738.042 567.034 737.514 567.102C736.994 567.162 736.572 567.213 736.248 567.256C735.464 567.358 734.731 567.524 734.049 567.754C733.376 567.976 732.831 568.312 732.413 568.764C732.004 569.207 731.799 569.812 731.799 570.58C731.799 571.628 732.187 572.42 732.963 572.957C733.747 573.486 734.74 573.75 735.941 573.75ZM758.528 556.364V558.92H748.352V556.364H758.528ZM751.317 551.659H754.335V570.375C754.335 571.227 754.458 571.866 754.705 572.293C754.961 572.71 755.285 572.991 755.677 573.136C756.077 573.273 756.499 573.341 756.942 573.341C757.275 573.341 757.548 573.324 757.761 573.29C757.974 573.247 758.144 573.213 758.272 573.188L758.886 575.898C758.681 575.974 758.396 576.051 758.029 576.128C757.663 576.213 757.198 576.256 756.636 576.256C755.783 576.256 754.948 576.072 754.13 575.706C753.32 575.339 752.647 574.781 752.11 574.031C751.582 573.281 751.317 572.335 751.317 571.193V551.659ZM763.066 576V556.364H766.083V576H763.066ZM764.6 553.091C764.012 553.091 763.505 552.891 763.079 552.49C762.661 552.089 762.452 551.608 762.452 551.045C762.452 550.483 762.661 550.001 763.079 549.601C763.505 549.2 764.012 549 764.6 549C765.188 549 765.691 549.2 766.109 549.601C766.535 550.001 766.748 550.483 766.748 551.045C766.748 551.608 766.535 552.089 766.109 552.49C765.691 552.891 765.188 553.091 764.6 553.091ZM787.666 556.364L780.404 576H777.336L770.075 556.364H773.348L778.768 572.011H778.973L784.393 556.364H787.666ZM799.178 576.409C797.286 576.409 795.654 575.991 794.282 575.156C792.918 574.312 791.865 573.136 791.124 571.628C790.391 570.111 790.025 568.347 790.025 566.335C790.025 564.324 790.391 562.551 791.124 561.017C791.865 559.474 792.897 558.273 794.218 557.412C795.547 556.543 797.098 556.108 798.871 556.108C799.894 556.108 800.904 556.278 801.901 556.619C802.898 556.96 803.806 557.514 804.624 558.281C805.442 559.04 806.094 560.045 806.58 561.298C807.066 562.551 807.309 564.094 807.309 565.926V567.205H792.172V564.597H804.24C804.24 563.489 804.019 562.5 803.576 561.631C803.141 560.761 802.519 560.075 801.709 559.572C800.908 559.07 799.962 558.818 798.871 558.818C797.669 558.818 796.63 559.116 795.752 559.713C794.882 560.301 794.213 561.068 793.745 562.014C793.276 562.96 793.042 563.974 793.042 565.057V566.795C793.042 568.278 793.297 569.536 793.809 570.567C794.328 571.589 795.049 572.369 795.969 572.906C796.89 573.435 797.959 573.699 799.178 573.699C799.971 573.699 800.686 573.588 801.326 573.366C801.973 573.136 802.532 572.795 803 572.344C803.469 571.884 803.831 571.312 804.087 570.631L807.002 571.449C806.695 572.438 806.179 573.307 805.455 574.057C804.73 574.798 803.836 575.378 802.77 575.795C801.705 576.205 800.507 576.409 799.178 576.409ZM822.432 576V549.818H831.279C833.324 549.818 835.003 550.168 836.316 550.866C837.628 551.557 838.6 552.507 839.23 553.717C839.861 554.928 840.176 556.304 840.176 557.847C840.176 559.389 839.861 560.757 839.23 561.95C838.6 563.143 837.632 564.081 836.328 564.763C835.025 565.436 833.358 565.773 831.33 565.773H824.171V562.909H831.228C832.625 562.909 833.75 562.705 834.603 562.295C835.463 561.886 836.086 561.307 836.469 560.557C836.861 559.798 837.057 558.895 837.057 557.847C837.057 556.798 836.861 555.882 836.469 555.098C836.077 554.314 835.451 553.709 834.59 553.283C833.729 552.848 832.591 552.631 831.176 552.631H825.603V576H822.432ZM834.756 564.239L841.199 576H837.517L831.176 564.239H834.756ZM852.817 576.409C851.044 576.409 849.489 575.987 848.151 575.143C846.821 574.3 845.781 573.119 845.031 571.602C844.29 570.085 843.919 568.312 843.919 566.284C843.919 564.239 844.29 562.453 845.031 560.928C845.781 559.402 846.821 558.217 848.151 557.374C849.489 556.53 851.044 556.108 852.817 556.108C854.589 556.108 856.141 556.53 857.47 557.374C858.808 558.217 859.848 559.402 860.589 560.928C861.339 562.453 861.714 564.239 861.714 566.284C861.714 568.312 861.339 570.085 860.589 571.602C859.848 573.119 858.808 574.3 857.47 575.143C856.141 575.987 854.589 576.409 852.817 576.409ZM852.817 573.699C854.163 573.699 855.271 573.354 856.141 572.663C857.01 571.973 857.653 571.065 858.071 569.94C858.489 568.815 858.697 567.597 858.697 566.284C858.697 564.972 858.489 563.749 858.071 562.615C857.653 561.482 857.01 560.565 856.141 559.866C855.271 559.168 854.163 558.818 852.817 558.818C851.47 558.818 850.362 559.168 849.493 559.866C848.624 560.565 847.98 561.482 847.562 562.615C847.145 563.749 846.936 564.972 846.936 566.284C846.936 567.597 847.145 568.815 847.562 569.94C847.98 571.065 848.624 571.973 849.493 572.663C850.362 573.354 851.47 573.699 852.817 573.699ZM874.297 576.409C872.525 576.409 870.969 575.987 869.631 575.143C868.301 574.3 867.262 573.119 866.512 571.602C865.77 570.085 865.4 568.312 865.4 566.284C865.4 564.239 865.77 562.453 866.512 560.928C867.262 559.402 868.301 558.217 869.631 557.374C870.969 556.53 872.525 556.108 874.297 556.108C876.07 556.108 877.621 556.53 878.951 557.374C880.289 558.217 881.328 559.402 882.07 560.928C882.82 562.453 883.195 564.239 883.195 566.284C883.195 568.312 882.82 570.085 882.07 571.602C881.328 573.119 880.289 574.3 878.951 575.143C877.621 575.987 876.07 576.409 874.297 576.409ZM874.297 573.699C875.644 573.699 876.752 573.354 877.621 572.663C878.49 571.973 879.134 571.065 879.551 569.94C879.969 568.815 880.178 567.597 880.178 566.284C880.178 564.972 879.969 563.749 879.551 562.615C879.134 561.482 878.49 560.565 877.621 559.866C876.752 559.168 875.644 558.818 874.297 558.818C872.951 558.818 871.843 559.168 870.973 559.866C870.104 560.565 869.461 561.482 869.043 562.615C868.625 563.749 868.417 564.972 868.417 566.284C868.417 567.597 868.625 568.815 869.043 569.94C869.461 571.065 870.104 571.973 870.973 572.663C871.843 573.354 872.951 573.699 874.297 573.699ZM887.8 576V556.364H890.715V559.432H890.971C891.38 558.384 892.04 557.57 892.952 556.99C893.864 556.402 894.96 556.108 896.238 556.108C897.533 556.108 898.612 556.402 899.472 556.99C900.342 557.57 901.019 558.384 901.505 559.432H901.71C902.212 558.418 902.967 557.612 903.972 557.016C904.978 556.411 906.184 556.108 907.59 556.108C909.346 556.108 910.782 556.658 911.898 557.757C913.015 558.848 913.573 560.548 913.573 562.858V576H910.556V562.858C910.556 561.409 910.16 560.374 909.367 559.751C908.575 559.129 907.641 558.818 906.567 558.818C905.187 558.818 904.117 559.236 903.359 560.071C902.6 560.898 902.221 561.946 902.221 563.216V576H899.153V562.551C899.153 561.435 898.79 560.536 898.066 559.854C897.342 559.163 896.408 558.818 895.266 558.818C894.482 558.818 893.749 559.027 893.067 559.445C892.394 559.862 891.849 560.442 891.431 561.183C891.022 561.916 890.817 562.764 890.817 563.727V576H887.8Z" fill="black"/>
</g>
<rect x="0.5" y="0.5" width="1599" height="1199" stroke="black"/>
<defs>
<clipPath id="clip0_1_2">
<rect width="1600" height="1200" fill="white"/>
</clipPath>
</defs>
</svg>
