<svg width="68" height="68" viewBox="0 0 68 68" fill="none" xmlns="http://www.w3.org/2000/svg">
<path d="M11.0002 51.5V42.5C17.5525 48.9259 22.5283 50.728 33.5002 51L44.5002 50C49.8329 48.2409 52.6845 46.6073 57.5002 42.5V51C46.8268 70.1769 10.8953 59.1853 11.0002 51.5Z" fill="#008001"/>
<path d="M57.375 18.0625C57.375 24.5168 46.9087 29.75 34 29.75C21.0913 29.75 10.625 24.5168 10.625 18.0625M57.375 18.0625C57.375 11.6082 46.9087 6.375 34 6.375C21.0913 6.375 10.625 11.6082 10.625 18.0625M57.375 18.0625V49.9375C57.375 56.3918 46.9087 61.625 34 61.625C21.0913 61.625 10.625 56.3918 10.625 49.9375V18.0625M57.375 18.0625V28.6875M10.625 18.0625V28.6875M57.375 28.6875V39.3125C57.375 45.7668 46.9087 51 34 51C21.0913 51 10.625 45.7668 10.625 39.3125V28.6875M57.375 28.6875C57.375 35.1418 46.9087 40.375 34 40.375C21.0913 40.375 10.625 35.1418 10.625 28.6875" stroke="white" stroke-width="1.5" stroke-linecap="round" stroke-linejoin="round"/>
</svg>
