<svg width="68" height="68" viewBox="0 0 68 68" fill="none" xmlns="http://www.w3.org/2000/svg">
<path d="M11.0002 30V21C17.5525 27.4259 22.5283 29.228 33.5002 29.5L44.5002 28.5C49.8329 26.7409 52.6845 25.1073 57.5002 21V29.5C46.8268 48.6769 10.8953 37.6853 11.0002 30Z" fill="#008001"/>
<ellipse cx="34" cy="18" rx="23" ry="11" fill="#008001"/>
<path d="M57.375 18.0625C57.375 24.5168 46.9087 29.75 34 29.75C21.0913 29.75 10.625 24.5168 10.625 18.0625M57.375 18.0625C57.375 11.6082 46.9087 6.375 34 6.375C21.0913 6.375 10.625 11.6082 10.625 18.0625M57.375 18.0625V49.9375C57.375 56.3918 46.9087 61.625 34 61.625C21.0913 61.625 10.625 56.3918 10.625 49.9375V18.0625M57.375 18.0625V28.6875M10.625 18.0625V28.6875M57.375 28.6875V39.3125C57.375 45.7668 46.9087 51 34 51C21.0913 51 10.625 45.7668 10.625 39.3125V28.6875M57.375 28.6875C57.375 35.1418 46.9087 40.375 34 40.375C21.0913 40.375 10.625 35.1418 10.625 28.6875" stroke="white" stroke-width="1.5" stroke-linecap="round" stroke-linejoin="round"/>
</svg>
